<?xml version="1.0" standalone="no"?>
<!DOCTYPE svg PUBLIC "-//W3C//DTD SVG 20010904//EN"
 "http://www.w3.org/TR/2001/REC-SVG-20010904/DTD/svg10.dtd">
<svg version="1.0" xmlns="http://www.w3.org/2000/svg"
 width="2362.000000pt" height="2362.000000pt" viewBox="0 0 2362.000000 2362.000000"
 preserveAspectRatio="xMidYMid meet">
<metadata>
Created by potrace 1.11, written by Peter Selinger 2001-2013
</metadata>
<g transform="translate(0.000000,2362.000000) scale(0.100000,-0.100000)"
fill="#000000" stroke="none">
<path d="M16106 20243 c-307 -532 -1508 -2612 -2668 -4621 l-2110 -3654 -619
-3196 c-340 -1759 -622 -3212 -625 -3229 l-6 -33 -78 0 -78 0 -6 38 c-3 20
-92 766 -197 1657 -105 891 -192 1622 -195 1624 -2 2 -5 2 -7 0 -28 -34 -2332
-4041 -2335 -4059 -4 -31 332 -1926 355 -1995 29 -92 75 -169 133 -226 67 -66
134 -101 244 -129 78 -20 108 -20 1866 -20 1064 0 1807 4 1836 9 200 38 342
168 408 372 15 48 486 2454 1116 5709 600 3094 1092 5635 1095 5648 5 19 12
22 50 22 33 0 45 -4 49 -17 3 -10 147 -758 320 -1663 1211 -6322 1838 -9595
1852 -9658 34 -158 131 -295 254 -357 128 -65 -38 -59 1974 -62 2012 -4 1880
-7 2012 57 107 52 198 170 238 311 9 29 126 668 261 1419 1700 9448 2364
13143 2370 13185 8 67 -10 188 -39 250 -47 103 -133 167 -272 202 -64 17 -161
18 -1444 18 -1507 0 -1444 2 -1577 -61 -121 -58 -200 -157 -238 -300 -8 -32
-49 -354 -90 -714 -42 -360 -86 -749 -100 -865 -14 -115 -101 -874 -195 -1685
-94 -811 -181 -1569 -195 -1685 -14 -115 -101 -874 -195 -1685 -94 -811 -193
-1666 -220 -1900 -170 -1470 -219 -1886 -300 -2590 -49 -432 -92 -800 -96
-818 l-5 -33 -92 3 -91 3 -108 545 c-59 300 -589 2991 -1178 5980 -589 2989
-1078 5458 -1087 5485 -48 152 -143 246 -298 296 -62 19 -97 22 -312 27 -134
2 -243 6 -243 8 0 2 322 753 715 1670 394 917 714 1671 713 1676 -2 5 -255
-427 -562 -959z"/>
<path d="M375 21179 c-202 -34 -318 -145 -360 -346 -22 -104 -22 -14643 0
-14748 38 -179 144 -289 317 -330 55 -13 463 -15 3166 -15 1706 0 3102 -3
3102 -6 0 -3 -320 -752 -711 -1665 -391 -913 -709 -1662 -707 -1664 5 -5 561
957 3520 6085 1546 2679 1728 2999 1728 3037 0 118 -85 507 -150 683 -37 102
-121 280 -179 378 -145 249 -405 513 -681 691 -262 170 -620 310 -937 367 -57
10 -103 21 -103 25 0 3 19 11 43 18 216 64 561 233 772 379 511 353 848 874
974 1502 67 335 74 478 68 1380 -5 795 -9 873 -58 1200 -113 746 -377 1354
-800 1845 -542 627 -1339 1021 -2314 1145 -363 46 -189 44 -3515 46 -1719 1
-3147 -2 -3175 -7z m5812 -2572 c223 -36 352 -75 503 -154 292 -150 459 -403
533 -804 22 -121 22 -140 22 -869 0 -723 -1 -749 -22 -865 -109 -599 -416
-872 -1098 -976 -59 -9 -439 -13 -1464 -16 -1226 -3 -1389 -2 -1436 12 -64 18
-108 53 -138 109 l-22 41 0 1690 0 1690 23 43 c29 55 61 83 120 104 44 16 143
17 1462 15 1266 -3 1426 -5 1517 -20z m160 -6190 c304 -41 537 -117 703 -230
223 -152 364 -411 422 -777 10 -67 13 -291 13 -1045 0 -1050 1 -1024 -61
-1252 -111 -411 -364 -649 -804 -757 -254 -62 -192 -60 -1839 -63 -1683 -4
-1578 -8 -1652 66 -74 74 -69 -72 -69 2006 0 2018 -3 1915 54 1989 29 38 79
65 145 76 25 5 703 7 1506 6 1289 -2 1474 -5 1582 -19z"/>
</g>
</svg>
